<?xml version="1.0" encoding="UTF-8"?>
<svg id="Layer_2" data-name="Layer 2" xmlns="http://www.w3.org/2000/svg" xmlns:xlink="http://www.w3.org/1999/xlink" viewBox="0 0 600 485.08">
  <defs>
    <style>
      .cls-1 {
        fill: url(#linear-gradient-2);
      }

      .cls-2 {
        fill: url(#linear-gradient-3);
      }

      .cls-3 {
        fill: url(#linear-gradient);
      }
    </style>
    <linearGradient id="linear-gradient" x1="600" y1="288.69" x2="400.01" y2="288.69" gradientUnits="userSpaceOnUse">
      <stop offset="0" stop-color="#f5f5f5"/>
      <stop offset=".43" stop-color="#f0f0f0"/>
      <stop offset=".91" stop-color="#e3e3e3"/>
      <stop offset="1" stop-color="#e0e0e0"/>
    </linearGradient>
    <linearGradient id="linear-gradient-2" x1="617.92" y1="17.92" x2="224.03" y2="411.81" gradientUnits="userSpaceOnUse">
      <stop offset=".4" stop-color="#f5f5f5"/>
      <stop offset="1" stop-color="#e0e0e0"/>
    </linearGradient>
    <linearGradient id="linear-gradient-3" x1="172.56" y1="6.92" x2="125.9" y2="271.56" gradientUnits="userSpaceOnUse">
      <stop offset=".4" stop-color="#f5f5f5"/>
      <stop offset="1" stop-color="#e0e0e0"/>
    </linearGradient>
  </defs>
  <g id="Finished_Logo_Base" data-name="Finished Logo Base">
    <g id="logo">
      <path class="cls-3" d="M600,346.43h-199.99l31.22-54.06,2.1-3.64,32.33-56.07c.34-.56.68-1.11.98-1.71h66.72l66.63,115.48Z"/>
      <path class="cls-1" d="M600,0l-66.63,115.48-33.36,57.74-33.32,57.74h-.04c-.3.6-.64,1.15-.98,1.71l-32.33,56.07-2.1,3.64-31.22,54.06-33.36,57.74-46.7,80.92c-29.42-7.53-54.27-26.39-69.76-51.66-1.03-1.71-2.05-3.46-3.04-5.26-4.88-9.02-8.6-18.78-10.91-29.08l30.37-52.65,33.36-57.74,9.2-15.91,5.73-9.97,17.15-29.72c.43-.68.86-1.41,1.24-2.14.56-.9,1.07-1.8,1.54-2.69l31.82-55.04,33.32-57.74,24.63-42.68,8.72-15.1L466.65,0h133.35Z"/>
      <path class="cls-2" d="M300.45,267.18c-3.04,2.18-6.16,4.19-9.41,6.03-16.98,9.88-36.7,15.48-57.74,15.48-19.89,0-38.58-5-54.91-13.86-.94-.51-1.88-1.07-2.82-1.63-16.77-9.67-30.88-23.48-40.93-39.99-.47-.73-.9-1.5-1.33-2.27-.56-.9-1.07-1.8-1.54-2.69l-31.78-55.04-33.36-57.74L0,0h133.31l33.36,57.74,8.9,15.48,2.82,4.88,21.6,37.38,33.32,57.74,33.87,57.74c8.34,14.37,19.76,26.73,33.27,36.23Z"/>
    </g>
  </g>
</svg>